<?xml version="1.0" standalone="no"?><!DOCTYPE svg PUBLIC "-//W3C//DTD SVG 1.1//EN" "http://www.w3.org/Graphics/SVG/1.1/DTD/svg11.dtd"><svg t="1720112656690" class="icon" viewBox="0 0 1024 1024" version="1.1" xmlns="http://www.w3.org/2000/svg" p-id="1442" xmlns:xlink="http://www.w3.org/1999/xlink" width="32" height="32"><path d="M0 0h1024v1024H0z" fill-opacity="0" p-id="1443"></path><path d="M825.856 215.04h-87.381333a25.088 25.088 0 0 1-24.405334-19.285333l-7.338666-30.208c-6.997333-31.402667-44.885333-54.954667-83.285334-54.954667H413.866667c-38.570667 0-75.605333 23.552-83.285334 54.954667l-7.338666 30.208a25.258667 25.258667 0 0 1-24.405334 19.285333H206.506667A104.106667 104.106667 0 0 0 102.4 319.658667v417.962666a103.936 103.936 0 0 0 103.424 104.448H826.026667a104.106667 104.106667 0 0 0 102.4-104.448V319.658667a103.936 103.936 0 0 0-102.570667-104.618667z m-310.613333 438.784a128 128 0 1 1 128-128 127.829333 127.829333 0 0 1-128 128z m296.448-344.746667a21.674667 21.674667 0 0 1-22.016 21.504H768a21.504 21.504 0 1 1 0-43.008h22.016a21.674667 21.674667 0 0 1 22.016 21.504z" fill="#3b73f0" p-id="1444" data-spm-anchor-id="a313x.collections_detail.0.i8.38653a81PODzCC" class="selected"></path><path d="M146.090667 428.373333v-10.581333a17.066667 17.066667 0 1 1 34.133333 0v10.581333a17.066667 17.066667 0 0 1-17.066667 17.066667 17.066667 17.066667 0 0 1-17.066666-17.066667z m0-69.632v-17.066666a75.946667 75.946667 0 0 1 74.410666-76.8h37.205334a17.066667 17.066667 0 0 1 17.066666 18.090666 17.066667 17.066667 0 0 1-17.066666 17.92h-37.205334a40.277333 40.277333 0 0 0-39.594666 40.789334v17.066666a17.066667 17.066667 0 0 1-17.066667 18.090667A17.066667 17.066667 0 0 1 146.090667 358.4z" fill="#FFFFFF" p-id="1445"></path></svg>