<?xml version="1.0" standalone="no"?><!DOCTYPE svg PUBLIC "-//W3C//DTD SVG 1.1//EN" "http://www.w3.org/Graphics/SVG/1.1/DTD/svg11.dtd"><svg t="1720201318074" class="icon" viewBox="0 0 1024 1024" version="1.1" xmlns="http://www.w3.org/2000/svg" p-id="11363" xmlns:xlink="http://www.w3.org/1999/xlink" width="81" height="81"><path d="M785.194667 716.629333l-3.584 4.693334L746.666667 661.333333q0.042667-0.085333-42.666667-106.666666l77.866667 21.333333a277.333333 277.333333 0 0 0-433.493334-287.914667L302.677333 242.389333a341.333333 341.333333 0 0 1 482.517334 474.24zM512 789.333333a277.333333 277.333333 0 0 0 163.584-53.333333l45.653333 45.653333A341.333333 341.333333 0 0 1 239.573333 306.432l2.816-3.072v-0.64l45.226667 46.336-0.085333 0.170667Q267.349333 380.586667 256 405.333333q-11.306667 24.704-13.866667 42.666667a277.333333 277.333333 0 0 0 269.866667 341.333333z" p-id="11364"></path><path d="M588.629333 644.266667h61.824l-98.688-266.496h-78.336L373.973333 644.266667h60.672l23.04-66.048h108.288l22.613334 66.048z m-114.048-114.432l35.328-100.992h4.608l34.56 100.992h-74.496z" p-id="11365"></path></svg>